<?xml version="1.0" standalone="no"?>
<!DOCTYPE svg PUBLIC "-//W3C//DTD SVG 20010904//EN"
 "http://www.w3.org/TR/2001/REC-SVG-20010904/DTD/svg10.dtd">
<svg version="1.0" xmlns="http://www.w3.org/2000/svg"
 width="500.000000pt" height="500.000000pt" viewBox="0 0 500.000000 500.000000"
 preserveAspectRatio="xMidYMid meet">

<g transform="translate(0.000000,500.000000) scale(0.100000,-0.100000)"
fill="#000000" stroke="none">
<path d="M3985 3816 c51 -14 85 -45 85 -76 0 -19 -63 -80 -81 -80 -6 0 -24 9
-40 21 -38 27 -130 59 -169 59 -47 0 -90 -26 -90 -54 0 -51 73 -110 158 -126
91 -17 237 26 276 82 22 31 20 76 -6 114 -30 44 -68 64 -130 70 l-53 4 50 -14z
m-55 -142 c22 -9 40 -19 40 -23 0 -25 -199 -53 -230 -32 -12 8 -11 13 5 32 11
12 29 25 40 30 33 13 102 10 145 -7z"/>
<path d="M4146 3568 c-59 -13 -56 -17 10 -15 45 2 59 -1 61 -13 3 -12 -35 -26
-179 -63 -101 -26 -221 -56 -267 -66 -45 -11 -86 -22 -89 -26 -3 -3 11 -22 31
-43 21 -20 44 -46 53 -57 15 -20 15 -20 11 1 -3 12 -2 26 2 32 3 5 109 35 235
66 125 30 234 61 242 67 22 18 26 47 9 79 -8 16 -17 30 -18 30 -1 0 -16 4 -32
8 -17 5 -48 5 -69 0z"/>
<path d="M4270 3339 c42 -17 80 -60 80 -91 0 -21 -8 -33 -32 -48 -18 -11 -41
-20 -50 -20 -10 0 -44 25 -75 55 -67 64 -114 89 -162 88 -86 -2 -77 -110 13
-172 108 -75 269 -82 340 -16 40 37 31 108 -23 168 -18 21 -75 47 -100 46 -10
0 -6 -4 9 -10z m-101 -108 c9 -5 27 -21 40 -35 l24 -26 -74 0 c-95 1 -196 42
-158 66 37 22 122 19 168 -5z"/>
<path d="M4350 3031 c8 -6 25 -11 36 -11 31 0 72 -35 58 -49 -7 -8 -51 -5
-152 11 -176 27 -196 23 -200 -40 -3 -39 1 -47 32 -77 20 -18 61 -42 93 -53
l58 -20 -61 -1 c-71 -1 -101 -23 -90 -64 11 -45 38 -68 86 -72 41 -4 42 -4 11
4 -40 11 -69 37 -56 50 6 5 78 2 180 -9 94 -10 172 -16 173 -15 2 2 1 21 -3
42 l-6 39 -85 12 c-154 23 -294 78 -294 117 0 22 21 22 150 3 153 -23 180 -21
199 12 12 23 12 30 -4 63 -20 44 -34 52 -95 61 -33 5 -41 4 -30 -3z"/>
<path d="M3968 2625 c-15 -33 2 -71 38 -87 23 -11 29 -10 45 11 13 15 17 31
13 45 -17 57 -75 76 -96 31z"/>
<path d="M4152 2578 c-34 -34 3 -108 64 -128 52 -18 52 -6 -1 14 -32 13 -45
23 -45 37 0 10 5 19 12 19 6 0 74 -21 150 -46 150 -50 183 -51 194 -9 14 56
-27 105 -101 119 -22 5 -18 1 17 -15 26 -11 49 -27 52 -35 9 -24 -53 -16 -165
21 -110 37 -157 43 -177 23z"/>
<path d="M4034 2461 c17 -19 17 -21 -15 -61 -29 -36 -34 -50 -37 -108 -4 -77
15 -119 70 -152 47 -28 94 -25 158 12 114 65 144 78 182 78 42 0 74 -24 83
-63 10 -38 -12 -104 -43 -128 -23 -18 -36 -20 -87 -16 l-60 5 84 -39 c96 -45
103 -46 73 -19 l-22 21 29 40 c34 46 54 126 45 178 -11 61 -49 118 -89 131
-51 17 -89 5 -190 -59 -73 -46 -98 -56 -133 -56 -34 0 -48 5 -63 24 -21 26
-26 90 -9 122 18 32 67 51 113 44 l42 -6 -60 30 c-86 43 -92 45 -71 22z"/>
<path d="M4002 1847 l-19 -42 53 -55 c105 -110 173 -212 174 -262 0 -44 -28
-25 -135 85 -119 124 -138 134 -175 95 -34 -36 -27 -91 16 -136 l37 -37 -27
37 c-28 39 -34 78 -13 78 7 0 51 -42 97 -92 122 -136 158 -154 200 -100 29 36
22 97 -19 163 l-31 50 47 -36 c55 -42 65 -43 92 -9 29 37 26 75 -10 120 -39
49 -39 49 -39 38 0 -5 11 -22 25 -38 25 -29 32 -60 16 -70 -5 -3 -68 52 -140
124 l-131 129 -18 -42z"/>
<path d="M3812 1527 c-27 -12 -57 -67 -67 -119 -22 -118 85 -298 177 -298 39
0 87 35 104 76 15 36 19 134 6 134 -5 0 -8 -21 -8 -46 1 -38 -4 -50 -26 -69
-35 -30 -57 -24 -113 31 -86 87 -130 233 -81 270 28 20 34 18 28 -11 -5 -30
22 -75 46 -75 44 0 55 51 21 94 -22 28 -49 32 -87 13z"/>
<path d="M3444 1166 c-51 -53 -70 -124 -60 -225 10 -109 60 -181 126 -181 59
0 128 77 137 152 3 32 2 39 -6 28 -6 -8 -11 -23 -11 -32 0 -27 -49 -78 -76
-78 -29 0 -61 30 -70 65 -5 19 3 40 34 88 65 100 77 171 36 211 -28 29 -64 19
-110 -28z m56 -28 c11 -24 19 -56 19 -73 0 -35 -32 -118 -47 -123 -30 -10 -41
188 -13 222 18 22 20 21 41 -26z"/>
<path d="M1625 1160 c-326 -133 -454 -180 -495 -180 -33 -1 -34 -2 -15 -16 31
-23 95 -64 101 -64 2 0 -3 11 -12 25 -14 21 -14 28 -3 41 16 19 114 64 143 66
12 1 49 -18 84 -41 l63 -42 -33 -59 c-37 -68 -65 -88 -97 -71 -11 7 -21 8 -21
4 0 -6 133 -98 161 -111 4 -1 4 8 2 22 -5 25 48 134 129 262 21 34 38 65 38
69 0 5 14 30 31 56 29 46 31 70 6 68 -7 0 -43 -14 -82 -29z m-39 -47 c-4 -10
-25 -48 -47 -85 l-41 -67 -31 21 c-18 11 -44 27 -59 36 -16 10 -27 21 -25 25
2 8 183 85 201 87 4 0 5 -8 2 -17z"/>
<path d="M1883 1126 c26 -20 22 -33 -40 -108 -152 -182 -239 -292 -246 -312
-17 -44 52 -87 107 -66 25 9 76 58 76 73 0 4 -17 -8 -37 -28 -36 -35 -62 -42
-70 -18 -2 6 15 34 39 61 99 116 308 374 308 381 0 4 -15 8 -33 9 -19 1 -49 7
-68 12 -46 13 -58 12 -36 -4z"/>
<path d="M2092 1054 c-24 -17 -29 -53 -10 -72 16 -16 73 -15 85 1 21 27 22 48
3 67 -24 24 -48 25 -78 4z"/>
<path d="M3240 1035 c-15 -16 -27 -44 -31 -73 l-6 -47 -12 33 c-18 45 -43 57
-81 37 -16 -8 -34 -24 -40 -34 -12 -23 -14 -121 -2 -121 5 0 7 13 4 30 -6 41
5 80 23 80 18 0 19 -5 46 -190 12 -80 23 -148 25 -152 3 -4 21 0 40 10 35 16
36 18 29 62 -26 174 -22 318 10 349 15 15 16 14 10 -11 -10 -39 2 -68 29 -68
49 0 75 70 38 103 -26 24 -55 21 -82 -8z"/>
<path d="M2664 1035 c-55 -23 -52 -95 5 -95 39 0 66 33 62 77 -2 23 -35 32
-67 18z"/>
<path d="M2914 914 c-53 -26 -93 -77 -119 -150 -47 -131 -25 -236 53 -256 52
-14 134 28 162 82 12 23 19 44 16 47 -2 3 -12 -9 -21 -26 -18 -35 -74 -67
-100 -58 -17 7 -45 65 -45 95 0 10 23 35 53 57 72 55 82 65 102 105 20 39 22
84 4 106 -15 18 -66 18 -105 -2z m44 -43 c6 -57 -6 -96 -44 -139 -48 -57 -58
-54 -51 13 7 74 50 168 74 163 12 -2 19 -14 21 -37z"/>
<path d="M1979 913 c-9 -2 -31 -25 -49 -51 l-32 -47 40 43 c23 23 46 42 51 42
26 0 18 -26 -26 -91 -124 -181 -141 -217 -111 -247 7 -7 33 -12 59 -12 43 0
51 4 78 37 17 21 31 42 31 48 -1 5 -14 -7 -31 -27 -31 -38 -69 -51 -69 -24 0
8 25 49 57 92 69 97 113 170 113 189 0 39 -56 63 -111 48z"/>
<path d="M2181 853 c-23 -18 -66 -103 -53 -103 4 0 16 19 27 43 14 28 27 43
43 45 12 2 22 1 22 -3 0 -3 -13 -40 -29 -83 -78 -208 -91 -245 -87 -249 2 -2
20 -6 40 -10 34 -5 37 -4 52 33 64 155 162 304 200 304 30 0 24 -30 -30 -157
-62 -143 -67 -174 -34 -197 44 -31 95 -13 127 46 11 22 21 45 21 51 -1 7 -9
-4 -20 -24 -25 -47 -47 -66 -62 -51 -10 10 17 83 79 218 8 18 13 53 11 80 l-3
49 -39 3 c-58 5 -90 -13 -137 -79 -24 -32 -44 -57 -46 -55 -2 2 4 19 12 39 18
44 19 89 3 105 -18 18 -73 15 -97 -5z"/>
<path d="M2602 853 c-34 -16 -62 -66 -61 -107 0 -12 9 1 20 32 15 38 26 52 40
52 10 0 19 -5 19 -11 0 -5 -16 -73 -35 -150 -43 -170 -39 -198 28 -199 38 0
64 15 80 48 20 39 30 85 17 77 -5 -3 -10 -14 -10 -24 0 -20 -36 -71 -51 -71
-15 0 -10 40 21 159 37 139 38 174 8 195 -28 20 -35 20 -76 -1z"/>
</g>
</svg>
