<?xml version="1.0" standalone="no"?>
<!DOCTYPE svg PUBLIC "-//W3C//DTD SVG 20010904//EN"
 "http://www.w3.org/TR/2001/REC-SVG-20010904/DTD/svg10.dtd">
<svg version="1.0" xmlns="http://www.w3.org/2000/svg"
 width="272.000000pt" height="164.000000pt" viewBox="0 0 272.000000 164.000000"
 preserveAspectRatio="xMidYMid meet">

<g transform="translate(0.000000,164.000000) scale(0.100000,-0.100000)"
fill="#000000" stroke="none">
<path d="M1560 1440 c6 -12 10 -23 8 -24 -15 -13 -97 -56 -105 -56 -6 0 -39
16 -72 34 l-61 35 -103 -59 c-91 -53 -102 -57 -105 -40 -2 13 -11 20 -27 20
-20 0 -24 -6 -27 -36 -3 -34 -9 -40 -67 -73 -51 -29 -65 -42 -68 -64 -4 -31
12 -36 43 -12 10 8 22 15 27 15 4 0 7 -74 7 -165 0 -158 -1 -165 -20 -165 -16
0 -20 -7 -20 -30 l0 -30 118 0 c116 0 252 17 347 44 50 14 49 14 -82 15 l-133
1 0 154 0 154 123 68 c67 36 153 85 190 107 56 33 70 38 78 26 5 -8 9 -18 9
-24 1 -5 15 16 31 49 17 32 29 59 27 61 -2 1 -32 6 -66 10 -64 7 -64 7 -52
-15z m-176 -127 c-11 -8 -65 -40 -121 -71 l-103 -57 0 -167 0 -168 -50 0 -50
0 0 183 0 182 136 76 136 77 35 -21 c34 -19 34 -21 17 -34z"/>
<path d="M1526 1285 c-22 -17 -24 -15 32 -45 l42 -24 0 -163 c0 -155 1 -163
20 -163 34 0 42 34 38 166 -2 68 -1 124 2 124 3 -1 16 -7 30 -15 35 -20 40
-19 40 13 0 24 -11 33 -85 75 -47 26 -88 47 -92 47 -5 0 -17 -7 -27 -15z"/>
<path d="M1645 809 l-40 -18 43 -1 c35 0 42 3 42 20 0 11 -1 20 -2 19 -2 0
-21 -9 -43 -20z"/>
<path d="M971 536 c-12 -14 -5 -26 16 -26 15 0 18 26 4 34 -5 3 -14 0 -20 -8z"/>
<path d="M1067 544 c-14 -15 -6 -34 14 -34 14 0 19 5 17 17 -3 18 -20 27 -31
17z"/>
<path d="M1947 544 c-14 -15 -6 -34 14 -34 14 0 19 5 17 17 -3 18 -20 27 -31
17z"/>
<path d="M2040 410 c0 -118 2 -140 15 -140 13 0 15 22 15 140 0 118 -2 140
-15 140 -13 0 -15 -22 -15 -140z"/>
<path d="M2143 543 c-21 -7 -15 -33 7 -33 11 0 20 6 20 14 0 18 -11 25 -27 19z"/>
<path d="M2451 536 c-12 -14 -5 -26 16 -26 15 0 18 26 4 34 -5 3 -14 0 -20 -8z"/>
<path d="M270 405 l0 -134 36 -7 c53 -10 125 3 151 28 27 25 32 88 9 111 -10
10 -13 27 -9 54 4 33 1 44 -18 62 -19 17 -35 21 -96 21 l-73 0 0 -135z m145
75 c10 -33 -13 -51 -59 -48 -30 2 -42 8 -44 21 -7 36 6 47 52 47 36 0 46 -4
51 -20z m15 -105 c7 -8 10 -25 6 -40 -6 -23 -11 -25 -66 -25 l-60 0 0 33 c0
19 3 37 7 40 13 14 100 7 113 -8z"/>
<path d="M1167 533 c-4 -3 -7 -64 -7 -134 0 -100 3 -128 14 -132 22 -9 26 2
26 66 0 59 0 59 26 53 42 -11 94 3 94 25 0 17 -8 19 -60 19 l-60 0 0 35 0 34
72 3 c60 2 73 6 76 21 3 15 -6 17 -86 17 -49 0 -92 -3 -95 -7z"/>
<path d="M581 464 c-36 -15 -50 -42 -30 -55 10 -6 18 -3 28 11 15 22 51 26 69
8 22 -22 13 -38 -22 -38 -80 0 -124 -46 -92 -94 21 -33 57 -42 95 -23 20 10
31 11 34 4 2 -6 10 -8 18 -5 22 8 18 152 -5 177 -23 25 -58 31 -95 15z m79
-110 c0 -14 -22 -45 -40 -54 -41 -22 -82 26 -42 49 18 11 82 15 82 5z"/>
<path d="M812 464 c-12 -8 -22 -10 -22 -5 0 6 -9 11 -20 11 -19 0 -20 -7 -20
-100 0 -93 1 -100 20 -100 18 0 20 7 20 69 0 73 14 101 50 101 24 0 30 -19 30
-101 0 -62 2 -69 20 -69 18 0 20 7 20 80 0 73 -3 83 -25 105 -28 29 -42 31
-73 9z"/>
<path d="M1685 470 c-11 -4 -32 -5 -47 -3 l-28 6 0 -102 c0 -94 1 -101 20
-101 18 0 20 7 20 73 0 76 9 97 42 97 16 0 40 -37 37 -58 -1 -4 -1 -31 0 -59
1 -40 5 -53 16 -53 11 0 15 12 16 48 1 92 16 125 53 120 19 -3 21 -11 24 -85
3 -75 5 -83 22 -83 18 0 20 7 20 79 0 44 -3 87 -6 96 -11 28 -51 37 -89 21
-19 -8 -37 -11 -40 -7 -8 13 -39 19 -60 11z"/>
<path d="M2263 460 c-36 -21 -50 -66 -39 -124 13 -71 92 -95 144 -43 26 26 26
27 5 27 -12 0 -25 -4 -28 -10 -11 -18 -64 -11 -75 9 -18 35 -11 40 58 43 l67
3 -3 30 c-3 33 -52 85 -80 85 -9 0 -31 -9 -49 -20z m81 -36 c11 -29 6 -34 -39
-34 -46 0 -58 13 -33 38 17 17 65 15 72 -4z"/>
<path d="M960 370 c0 -93 1 -100 20 -100 19 0 20 7 20 100 0 93 -1 100 -20
100 -19 0 -20 -7 -20 -100z"/>
<path d="M1060 370 c0 -93 1 -100 20 -100 19 0 20 7 20 100 0 93 -1 100 -20
100 -19 0 -20 -7 -20 -100z"/>
<path d="M1410 443 c-20 -26 -20 -28 -3 -34 12 -4 23 1 31 13 19 26 62 20 73
-9 8 -21 5 -23 -25 -23 -54 0 -95 -19 -102 -47 -14 -55 39 -99 90 -75 12 5 34
8 49 5 l27 -5 0 79 c0 101 -13 123 -75 123 -35 0 -47 -5 -65 -27z m98 -105
c-4 -29 -45 -50 -70 -37 -39 21 -10 58 45 59 24 0 28 -4 25 -22z"/>
<path d="M1940 370 c0 -93 1 -100 20 -100 19 0 20 7 20 100 0 93 -1 100 -20
100 -19 0 -20 -7 -20 -100z"/>
<path d="M2130 370 c0 -93 1 -100 20 -100 19 0 20 7 20 100 0 93 -1 100 -20
100 -19 0 -20 -7 -20 -100z"/>
<path d="M2440 370 c0 -93 1 -100 20 -100 19 0 20 7 20 100 0 93 -1 100 -20
100 -19 0 -20 -7 -20 -100z"/>
<path d="M482 188 c-26 -26 -6 -69 33 -67 17 1 16 2 -5 8 -18 5 -25 14 -25 31
0 17 7 26 25 31 21 6 22 7 5 8 -12 1 -26 -4 -33 -11z"/>
<path d="M570 185 c-15 -18 -10 -45 13 -59 34 -22 73 27 47 59 -16 19 -44 19
-60 0z m55 -25 c0 -18 -6 -26 -23 -28 -24 -4 -38 18 -28 44 3 9 15 14 28 12
17 -2 23 -10 23 -28z"/>
<path d="M672 160 c1 -31 2 -36 5 -16 l5 28 29 -28 29 -28 -1 45 c-2 29 -3 35
-6 17 -2 -16 -7 -28 -11 -28 -3 0 -16 12 -29 28 l-22 27 1 -45z"/>
<path d="M770 180 c0 -11 4 -20 10 -20 5 0 7 6 4 14 -4 9 3 16 18 19 21 4 20
4 -4 6 -22 1 -28 -4 -28 -19z"/>
<path d="M854 165 c1 -35 4 -40 25 -40 13 0 26 7 28 15 4 12 3 13 -5 1 -16
-22 -40 -5 -45 31 -4 28 -4 27 -3 -7z"/>
<path d="M952 163 c-2 -41 -1 -43 26 -42 22 1 23 2 5 6 -17 3 -23 13 -26 41
l-4 37 -1 -42z"/>
<path d="M1022 193 c11 -3 18 -17 21 -41 l4 -37 1 37 c1 25 7 38 20 41 9 3 -1
5 -23 5 -22 0 -32 -2 -23 -5z"/>
<path d="M1106 164 c-9 -20 -14 -39 -11 -42 3 -3 5 0 5 6 0 16 43 15 59 0 10
-11 10 -8 0 15 -8 17 -15 23 -20 16 -3 -6 -12 -10 -19 -7 -9 3 -8 8 4 20 18
18 20 28 8 28 -5 0 -16 -16 -26 -36z"/>
<path d="M1192 160 c1 -35 2 -38 5 -13 l4 32 29 -32 29 -32 -1 45 c-1 29 -2
35 -5 18 -2 -16 -6 -28 -9 -28 -3 0 -16 12 -29 28 l-24 27 1 -45z"/>
<path d="M1293 193 c12 -3 17 -16 19 -41 l1 -37 4 35 c3 19 10 38 16 42 7 4
-4 7 -23 7 -19 -1 -27 -3 -17 -6z"/>
<path d="M1374 165 c-8 -21 -13 -40 -10 -43 3 -3 6 0 6 7 0 9 10 12 29 9 28
-4 28 -3 19 24 -15 42 -27 43 -44 3z m36 -6 c0 -5 -7 -9 -15 -9 -15 0 -20 12
-9 23 8 8 24 -1 24 -14z"/>
<path d="M1501 158 c1 -24 3 -35 6 -26 2 9 12 19 21 21 15 4 15 5 0 6 -26 2
-22 29 5 34 19 4 18 4 -5 6 -27 1 -28 -1 -27 -41z"/>
<path d="M1583 160 c0 -25 2 -35 4 -22 2 12 2 32 0 45 -2 12 -4 2 -4 -23z"/>
<path d="M1622 159 c1 -38 2 -40 5 -10 l4 34 29 -34 29 -34 -1 45 c-1 31 -2
36 -5 16 l-5 -28 -29 28 -29 28 2 -45z"/>
<path d="M1740 194 c0 -3 7 -13 16 -22 12 -12 13 -17 4 -20 -7 -3 -16 1 -19 7
-5 7 -12 1 -20 -16 -10 -23 -10 -26 0 -15 16 15 59 16 59 0 0 -6 2 -9 5 -6 8
7 -26 78 -37 78 -4 0 -8 -3 -8 -6z"/>
<path d="M1812 158 c1 -41 1 -41 5 -8 l5 35 29 -35 28 -35 0 45 c-1 38 -2 41
-8 15 l-6 -29 -21 27 c-12 15 -25 27 -28 27 -3 0 -5 -19 -4 -42z"/>
<path d="M1922 188 c-25 -25 -6 -68 29 -68 10 0 20 4 23 8 2 4 -8 8 -22 7 -22
0 -27 5 -27 25 0 17 7 26 25 31 21 6 22 7 5 8 -12 1 -26 -4 -33 -11z"/>
<path d="M2056 164 c-9 -20 -14 -39 -11 -42 3 -3 5 0 5 6 0 16 43 15 59 0 10
-11 10 -8 0 15 -8 17 -15 23 -20 16 -3 -6 -12 -10 -19 -7 -9 3 -8 8 4 20 18
18 20 28 8 28 -5 0 -16 -16 -26 -36z"/>
<path d="M2142 158 l1 -43 4 38 c3 29 8 37 25 37 17 0 19 -4 13 -27 -5 -21 -4
-25 5 -17 20 20 7 49 -23 52 -26 3 -27 2 -25 -40z"/>
<path d="M2258 194 c-4 -3 0 -14 9 -23 16 -15 15 -16 -9 -19 -15 -2 -29 -11
-33 -20 -5 -14 -4 -15 6 -4 16 15 59 16 59 0 0 -6 3 -9 6 -6 3 4 -3 22 -13 42
-10 20 -22 34 -25 30z"/>
<path d="M806 146 c4 -9 -3 -16 -18 -19 -22 -5 -22 -5 2 -4 24 2 44 37 21 37
-6 0 -8 -6 -5 -14z"/>
<path d="M2011 144 c0 -11 3 -14 6 -6 3 7 2 16 -1 19 -3 4 -6 -2 -5 -13z"/>
</g>
</svg>
