<?xml version="1.0" standalone="no"?>
<!DOCTYPE svg PUBLIC "-//W3C//DTD SVG 20010904//EN"
 "http://www.w3.org/TR/2001/REC-SVG-20010904/DTD/svg10.dtd">
<svg version="1.0" xmlns="http://www.w3.org/2000/svg"
 width="1600.000000pt" height="212.000000pt" viewBox="0 0 1600.000000 212.000000"
 preserveAspectRatio="xMidYMid meet">

<g transform="translate(0.000000,212.000000) scale(0.100000,-0.100000)"
fill="#000000" stroke="none">
<path d="M13920 1846 c-155 -33 -270 -92 -383 -196 -162 -150 -247 -351 -247
-590 0 -369 204 -654 550 -767 79 -26 97 -28 245 -28 140 0 169 3 235 23 97
31 192 81 266 140 61 49 154 157 154 178 0 7 -66 50 -147 97 l-146 85 -28 -38
c-63 -87 -171 -140 -299 -148 -288 -16 -480 167 -480 458 0 233 121 395 332
445 110 26 214 16 314 -31 51 -24 132 -92 151 -127 8 -16 24 -9 154 66 79 46
145 90 147 98 3 19 -81 119 -148 175 -65 53 -210 127 -295 150 -82 22 -292 27
-375 10z"/>
<path d="M8340 1060 l0 -770 175 0 175 0 0 770 0 770 -175 0 -175 0 0 -770z"/>
<path d="M8954 1817 c-2 -7 -3 -352 -2 -767 l3 -755 177 -3 178 -2 2 440 3
441 195 -320 c151 -249 199 -321 215 -321 16 0 63 71 215 320 107 176 198 320
202 320 4 0 8 -198 8 -440 l0 -440 175 0 175 0 -3 768 -2 767 -175 3 -175 2
-51 -82 c-29 -46 -109 -177 -179 -293 -198 -327 -187 -310 -201 -290 -7 9
-101 162 -210 341 l-198 324 -173 0 c-132 0 -175 -3 -179 -13z"/>
<path d="M10760 1060 l0 -770 175 0 175 0 0 239 0 238 173 5 c150 5 180 9 238
30 179 66 294 186 344 361 19 67 22 190 5 262 -44 193 -218 359 -414 394 -35
6 -194 11 -378 11 l-318 0 0 -770z m657 425 c82 -34 117 -96 111 -195 -4 -76
-28 -121 -86 -161 -34 -23 -44 -24 -181 -24 l-146 0 -3 185 c-1 101 0 190 2
197 8 20 255 18 303 -2z"/>
<path d="M12282 1773 c-25 -68 -502 -1475 -502 -1480 0 -2 86 -2 192 -1 l192
3 36 115 36 115 289 0 289 0 36 -115 36 -115 192 -3 c106 -1 192 -1 192 1 0 2
-72 217 -161 478 -88 261 -203 598 -254 749 -51 151 -96 283 -100 293 -6 15
-27 17 -230 17 l-223 0 -20 -57z m333 -626 c47 -146 85 -271 85 -276 0 -7 -58
-11 -175 -11 -96 0 -175 4 -175 9 0 5 32 109 71 232 39 123 78 246 86 272 8
27 16 47 19 45 2 -3 42 -125 89 -271z"/>
<path d="M14810 1660 l0 -170 195 0 195 0 0 -600 0 -600 175 2 175 3 3 595 2
595 223 3 c192 2 222 4 222 18 0 8 -46 85 -102 170 l-102 154 -493 0 -493 0 0
-170z"/>
<path d="M0 1055 l0 -705 385 0 385 0 0 50 0 50 -330 0 -330 0 0 655 0 655
-55 0 -55 0 0 -705z"/>
<path d="M992 1058 l3 -703 405 0 405 0 3 48 3 47 -355 0 -356 0 0 280 0 280
320 0 320 0 0 50 0 50 -320 0 -320 0 0 275 0 275 345 0 345 0 0 50 0 50 -400
0 -400 0 2 -702z"/>
<path d="M2479 1733 c-6 -16 -25 -66 -43 -113 -18 -47 -135 -348 -259 -669
-125 -321 -227 -588 -227 -593 0 -5 24 -8 53 -6 l52 3 31 80 c17 44 48 124 68
178 l38 97 355 -2 356 -3 66 -175 67 -175 53 -3 c51 -3 53 -2 48 20 -2 13
-118 316 -257 673 -139 358 -257 665 -263 683 -10 31 -12 32 -69 32 -55 0 -59
-2 -69 -27z m96 -170 c10 -26 78 -205 151 -396 74 -192 134 -350 134 -353 0
-2 -140 -4 -311 -4 l-311 0 5 23 c2 12 62 171 132 352 70 182 136 354 147 383
11 29 23 50 27 47 5 -2 16 -26 26 -52z"/>
<path d="M3360 1054 l0 -706 323 4 c322 4 322 4 402 32 143 50 245 124 325
238 160 227 181 520 57 778 -55 115 -177 238 -287 292 -127 62 -167 68 -512
68 l-308 0 0 -706z m663 591 c140 -36 277 -144 344 -270 95 -179 99 -430 11
-610 -53 -108 -138 -196 -240 -250 -104 -55 -169 -65 -440 -65 l-238 0 0 605
0 605 253 0 c192 0 267 -4 310 -15z"/>
<path d="M4820 1055 l0 -705 403 2 402 3 3 47 3 48 -353 2 -353 3 -3 278 -2
277 325 0 325 0 0 50 0 50 -322 2 -323 3 -3 273 -2 272 350 0 350 0 0 50 0 50
-400 0 -400 0 0 -705z"/>
<path d="M5892 1058 l3 -703 53 -3 52 -3 0 290 0 291 223 0 222 0 169 -290
169 -290 59 0 c32 0 58 2 58 5 0 3 -42 76 -94 162 -191 323 -246 417 -246 422
0 3 26 17 57 30 80 35 165 118 205 199 31 63 33 73 33 177 0 105 -2 114 -33
178 -42 85 -115 157 -201 200 l-66 32 -332 3 -333 3 2 -703z m699 570 c57 -34
115 -97 140 -153 75 -170 -18 -378 -193 -430 -40 -12 -106 -15 -295 -15 l-243
0 0 316 0 315 273 -3 272 -3 46 -27z"/>
</g>
</svg>
