<?xml version="1.0" standalone="no"?>
<!DOCTYPE svg PUBLIC "-//W3C//DTD SVG 20010904//EN"
 "http://www.w3.org/TR/2001/REC-SVG-20010904/DTD/svg10.dtd">
<svg version="1.0" xmlns="http://www.w3.org/2000/svg"
 width="800.000000pt" height="800.000000pt" viewBox="0 0 800.000000 800.000000"
 preserveAspectRatio="xMidYMid meet">

<g transform="translate(0.000000,800.000000) scale(0.100000,-0.100000)"
fill="#000000" stroke="none">
<path d="M3940 7764 c-175 -38 -373 -178 -456 -322 -15 -26 -28 -49 -30 -50
-1 -2 -37 3 -79 12 -250 52 -530 -23 -697 -187 -172 -168 -234 -453 -148 -688
79 -218 259 -350 563 -414 l27 -5 0 -855 0 -855 -22 0 c-43 0 -129 49 -185
105 -30 31 -57 54 -59 52 -8 -8 27 -100 64 -170 37 -73 151 -202 206 -237 20
-11 37 -32 41 -48 13 -51 76 -166 128 -230 100 -126 247 -224 420 -280 80 -25
87 -26 362 -26 262 -1 285 0 364 22 231 64 415 213 520 422 23 45 41 88 41 96
0 7 31 38 69 68 37 30 90 83 116 118 53 70 111 184 121 238 l7 35 -54 -50
c-29 -27 -56 -53 -59 -57 -11 -14 -116 -58 -137 -58 l-23 0 0 660 0 659 43 11
c78 20 112 33 172 63 122 60 256 178 336 293 41 60 101 192 125 274 27 92 27
335 0 435 -51 193 -170 370 -324 483 -168 124 -317 172 -531 172 l-118 0 -47
59 c-93 119 -265 223 -425 257 -83 17 -246 16 -331 -2z m-700 -544 c48 -48 13
-105 -75 -121 -70 -13 -101 -27 -173 -81 -107 -79 -166 -209 -160 -351 3 -77
2 -80 -24 -100 -23 -17 -33 -19 -55 -11 -43 15 -58 56 -57 159 1 143 53 256
168 370 76 74 153 120 239 141 77 18 114 17 137 -6z m1640 -2371 l0 -400 -30
21 c-16 12 -56 44 -87 71 -32 27 -96 69 -142 92 l-84 42 -121 0 c-114 0 -124
-2 -181 -30 -33 -16 -81 -51 -107 -77 l-47 -48 -46 49 c-64 68 -145 103 -254
109 -153 8 -237 -24 -395 -153 -28 -23 -64 -50 -79 -59 l-27 -18 0 401 0 401
800 0 800 0 0 -401z m-711 -642 c78 -59 200 -119 291 -144 47 -13 102 -18 203
-18 75 0 137 -1 137 -3 0 -2 -18 -29 -39 -60 -79 -115 -192 -199 -332 -247
-80 -28 -93 -29 -299 -33 -243 -4 -326 5 -433 49 -87 35 -160 85 -227 153 -48
50 -59 63 -93 116 l-16 25 142 0 c106 0 159 5 207 19 92 25 213 86 299 151 40
30 78 52 84 48 5 -3 39 -28 76 -56z"/>
<path d="M4304 5091 c-75 -34 -136 -120 -114 -161 6 -11 22 -23 37 -26 22 -6
32 1 72 44 48 53 75 65 123 55 28 -5 41 -17 91 -77 19 -24 29 -28 50 -22 32 8
51 39 42 67 -11 35 -77 101 -120 120 -51 24 -129 24 -181 0z"/>
<path d="M3679 5051 c-20 -20 -29 -39 -29 -61 0 -43 47 -90 90 -90 22 0 41 9
61 29 20 20 29 39 29 61 0 22 -9 41 -29 61 -20 20 -39 29 -61 29 -22 0 -41 -9
-61 -29z"/>
<path d="M3733 3273 c-50 -7 -39 -20 21 -26 53 -5 114 -30 128 -51 18 -27 7
-68 -29 -106 -89 -93 -288 -95 -763 -9 -91 17 -228 42 -305 56 -123 22 -159
25 -290 20 -201 -7 -309 -31 -440 -99 -152 -79 -254 -202 -317 -384 -69 -200
-40 -363 86 -482 78 -74 132 -97 226 -96 79 1 119 10 214 52 l58 26 -86 23
c-135 35 -219 88 -246 153 -32 76 14 189 103 256 151 112 455 141 867 83 41
-6 80 -14 87 -18 8 -4 -6 -29 -44 -76 -216 -270 -290 -395 -417 -706 -109
-266 -205 -449 -268 -507 -32 -29 -122 -41 -168 -22 -81 34 -91 186 -18 257
51 49 90 58 161 37 28 -9 19 9 -20 39 -80 60 -217 24 -328 -86 -118 -119 -165
-318 -114 -482 26 -86 89 -153 170 -181 121 -42 302 -16 439 63 82 48 215 179
261 258 20 33 65 107 100 165 167 269 315 549 414 780 76 177 160 370 182 418
10 20 25 34 42 38 307 70 521 172 599 286 89 132 61 257 -68 304 -46 16 -178
26 -237 17z"/>
<path d="M6115 3251 c-69 -31 -135 -120 -184 -247 -7 -17 -11 -55 -9 -85 3
-48 6 -56 37 -76 73 -50 164 -18 239 82 56 74 92 163 92 225 0 46 -4 56 -34
86 -40 40 -78 44 -141 15z"/>
<path d="M5393 3101 c-28 -13 -74 -97 -169 -311 -42 -96 -80 -178 -83 -182 -8
-10 -210 -42 -217 -35 -8 8 24 75 103 215 77 137 99 190 86 203 -25 25 -245
38 -303 18 -30 -11 -40 -26 -100 -153 -37 -78 -87 -187 -111 -243 -44 -101
-44 -102 -84 -108 -87 -14 -104 -24 -131 -77 -18 -35 -24 -62 -22 -91 l3 -42
43 1 c28 0 42 -4 42 -12 0 -7 -19 -57 -42 -111 -28 -66 -55 -113 -84 -143 -23
-25 -82 -106 -132 -180 -137 -208 -218 -298 -244 -272 -25 25 96 277 245 511
100 157 114 207 81 276 -27 58 -126 90 -184 60 -86 -45 -160 -145 -215 -290
-70 -189 -397 -645 -462 -645 -26 0 -9 63 46 177 49 101 86 166 214 375 75
124 88 170 60 225 -39 82 -134 107 -209 57 -100 -68 -132 -119 -233 -367 -43
-106 -97 -232 -120 -279 -58 -123 -69 -160 -83 -265 -10 -81 -10 -99 5 -146 9
-30 30 -66 47 -82 25 -24 39 -29 83 -29 93 -1 193 68 338 236 31 36 60 64 63
61 3 -4 6 -27 6 -52 0 -57 34 -127 71 -146 64 -33 171 -7 254 61 26 22 82 81
126 132 77 90 79 92 85 65 9 -37 37 -93 61 -119 54 -62 188 -79 273 -35 45 24
191 162 224 214 21 31 36 35 36 9 0 -29 55 -107 91 -130 73 -45 184 -37 264
18 43 30 147 129 181 174 24 30 24 30 44 -32 28 -90 111 -126 233 -102 154 30
285 127 414 307 51 71 146 258 141 275 -2 6 -31 -20 -64 -58 -93 -109 -134
-144 -202 -177 -73 -34 -139 -45 -171 -27 -20 10 -22 17 -16 48 9 54 86 204
194 382 52 85 107 179 123 209 46 89 35 159 -34 204 -74 48 -141 30 -231 -60
-53 -52 -81 -102 -157 -280 -28 -65 -59 -127 -69 -138 -9 -11 -48 -67 -86
-125 -123 -188 -212 -297 -266 -325 -35 -19 -54 -5 -46 34 11 56 127 333 200
481 l72 144 75 21 c65 18 78 25 107 63 38 49 51 102 34 139 -10 23 -16 25 -51
20 -25 -3 -40 -1 -40 5 0 6 35 76 78 155 42 79 87 162 100 185 27 51 29 93 5
103 -29 11 -266 16 -290 6z m-362 -754 c-5 -13 -23 -54 -40 -91 -17 -38 -31
-75 -31 -82 0 -7 -13 -29 -30 -47 -16 -19 -53 -72 -82 -118 -56 -89 -66 -102
-139 -202 -101 -137 -199 -206 -199 -141 0 18 62 186 96 262 13 29 24 54 24
57 0 3 17 40 113 246 24 53 51 100 58 105 13 8 153 30 211 33 25 1 27 -1 19
-22z"/>
<path d="M3240 561 l0 -331 50 0 50 0 0 119 0 118 52 7 c124 17 153 55 152
202 0 173 -31 206 -201 212 l-103 4 0 -331z m184 213 c12 -11 16 -36 16 -91 0
-89 -14 -113 -67 -113 l-33 0 0 110 0 110 34 0 c19 0 42 -7 50 -16z"/>
<path d="M3677 884 c-4 -4 -7 -153 -7 -331 l0 -323 55 0 55 0 -2 328 -3 327
-45 3 c-25 2 -49 0 -53 -4z"/>
<path d="M3917 883 c-4 -3 -7 -26 -7 -50 l0 -43 90 0 c60 0 90 -4 90 -11 0 -7
-18 -53 -39 -103 -120 -277 -151 -359 -151 -402 l0 -44 155 0 155 0 0 45 0 45
-96 0 c-95 0 -96 0 -90 23 3 12 44 114 92 227 67 156 88 219 92 263 l4 57
-144 0 c-80 0 -148 -3 -151 -7z"/>
<path d="M4347 883 c-4 -3 -7 -26 -7 -49 l0 -43 94 -3 93 -3 -98 -235 c-72
-171 -99 -246 -99 -277 l0 -43 155 0 155 0 0 45 0 45 -95 0 c-54 0 -95 4 -95
10 0 5 43 112 95 237 75 180 95 237 95 275 l0 48 -143 0 c-79 0 -147 -3 -150
-7z"/>
<path d="M4875 881 c-3 -6 -21 -108 -41 -228 -19 -120 -41 -256 -49 -303 -22
-124 -23 -120 34 -120 l48 0 7 60 7 61 62 -3 62 -3 9 -57 9 -58 54 0 c54 0 55
0 49 27 -3 16 -17 105 -32 198 -14 94 -35 229 -47 300 l-22 130 -72 3 c-41 2
-74 -2 -78 -7z m109 -393 l7 -48 -46 0 c-54 0 -53 -6 -25 165 11 66 20 125 21
130 2 11 32 -166 43 -247z"/>
</g>
</svg>
